<?xml version="1.0" standalone="no"?>
<!DOCTYPE svg PUBLIC "-//W3C//DTD SVG 20010904//EN"
 "http://www.w3.org/TR/2001/REC-SVG-20010904/DTD/svg10.dtd">
<svg version="1.0" xmlns="http://www.w3.org/2000/svg"
 width="720.000000pt" height="720.000000pt" viewBox="0 0 720.000000 720.000000"
 preserveAspectRatio="xMidYMid meet">
<metadata>
Created by potrace 1.11, written by Peter Selinger 2001-2013
</metadata>
<g transform="translate(0.000000,720.000000) scale(0.100000,-0.100000)"
fill="#000000" stroke="none">
<path d="M3462 5095 c-79 -13 -146 -25 -148 -28 -2 -2 4 -60 15 -128 11 -68
19 -124 18 -124 -1 -1 -29 -9 -62 -19 -144 -43 -329 -162 -414 -266 -52 -64
-98 -146 -123 -219 -30 -86 -32 -260 -4 -366 24 -92 75 -198 126 -263 93 -117
279 -214 482 -252 54 -10 67 -16 71 -33 14 -60 109 -709 104 -713 -9 -9 -116
25 -176 56 -75 37 -165 105 -254 190 l-74 70 -107 -168 -106 -167 63 -58 c183
-169 394 -264 630 -283 l86 -7 10 -66 c36 -221 37 -226 52 -224 115 13 319 49
319 55 0 5 -9 68 -20 140 -11 72 -19 133 -16 135 3 3 44 18 92 35 233 78 395
210 484 393 100 206 91 489 -20 651 -112 162 -295 261 -610 328 -26 5 -26 7
-81 366 -63 412 -70 374 60 314 82 -38 130 -73 211 -151 l56 -53 107 144 c59
79 107 147 107 151 0 36 -161 171 -265 223 -105 52 -254 92 -346 92 -45 0 -40
-11 -65 158 -15 103 -18 112 -38 111 -11 -1 -85 -11 -164 -24z m-59 -642 c13
-45 99 -644 94 -649 -11 -11 -172 36 -237 68 -112 57 -167 162 -158 299 8 113
84 210 211 270 72 34 84 35 90 12z m482 -1089 c208 -51 325 -172 325 -338 0
-106 -87 -218 -222 -284 -119 -58 -104 -84 -159 273 -26 171 -51 325 -54 343
-7 37 -17 36 110 6z"/>
</g>
</svg>
